#!OML:ASF F:\VICON\USERDATA\INSTALL\rory3\rory3.ASF
:FULLY-SPECIFIED
:DEGREES
931
root 8.14521 16.1005 25.9134 -336.951 26.4803 360.759
lowerback -19.411 -4.9515 -0.844013
upperback -13.5306 -6.1011 0.901332
thorax -3.65809 -2.89049 0.462182
lowerneck -11.4847 -1.13193 -3.70149
upperneck 42.4478 -1.54388 2.82619
head 17.6726 -0.743915 1.74385
rclavicle 3.58806e-014 9.93923e-016
rhumerus -39.2603 -45.2959 -22.1265
rradius 9.87098
rwrist 46.9829
rhand 4.35134 9.14689
rfingers 7.12502
rthumb 29.7511 -18.4852
lclavicle 3.58806e-014 9.93923e-016
lhumerus 0.57627 -24.7981 70.7001
lradius 17.9922
lwrist -46.6009
lhand 19.5312 19.2266
lfingers 7.12502
lthumb 44.0981 43.0728
rfemur -63.8493 -8.31172 35.2596
rtibia 47.1301
rfoot -26.1114 -35.2117
rtoes 38.8389
lfemur -2.61322 -8.25786 -21.0586
ltibia 29.4186
lfoot -6.32046 -7.01446
ltoes -41.1793
932
root 8.17545 16.1546 26.0181 -336.879 26.6685 360.838
lowerback -19.5593 -5.00199 -0.888169
upperback -13.3595 -6.15905 0.898669
thorax -3.38747 -2.91931 0.451979
lowerneck -12.529 -1.12068 -3.46597
upperneck 42.7635 -1.5442 2.76958
head 18.1395 -0.711077 1.68616
rclavicle -1.02995e-014 -3.85642e-014
rhumerus -40.9788 -48.727 -17.8031
rradius 9.60467
rwrist 51.5425
rhand 4.06515 9.50382
rfingers 7.12502
rthumb 29.4779 -18.1767
lclavicle -1.02995e-014 -3.85642e-014
lhumerus 2.62155 -24.9493 69.1728
lradius 18.3855
lwrist -45.8823
lhand 19.9748 20.3288
lfingers 7.12502
lthumb 44.5116 44.0182
rfemur -63.1824 -8.29201 35.0109
rtibia 46.8697
rfoot -26.425 -35.3359
rtoes 38.4163
lfemur -2.26455 -8.14637 -21.083
ltibia 29.1728
lfoot -5.19142 -6.08947
ltoes -40.6218
933
root 8.20091 16.2086 26.1195 -336.598 26.9279 361.076
lowerback -19.1605 -5.10702 -0.931194
upperback -14.4602 -6.27304 0.803399
thorax -4.83628 -2.95671 0.456524
lowerneck -10.3973 -1.00297 -3.34076
upperneck 43.0626 -1.46772 2.80234
head 17.7397 -0.65828 1.69585
rclavicle 1.92573e-014 4.47266e-015
rhumerus -44.6205 -49.4773 -11.9308
rradius 9.8165
rwrist 55.8019
rhand 4.02368 10.0336
rfingers 7.12502
rthumb 29.4383 -17.6539
lclavicle 1.92573e-014 4.47266e-015
lhumerus 1.96425 -25.3791 68.6897
lradius 18.9045
lwrist -46.1554
lhand 19.7999 20.4092
lfingers 7.12502
lthumb 44.3486 44.1609
rfemur -62.6692 -8.34226 34.6508
rtibia 46.4839
rfoot -26.8796 -35.3836
rtoes 38.4158
lfemur -2.12494 -8.19917 -21.2185
ltibia 28.8516
lfoot -3.85855 -5.03643
ltoes -39.1712
934
root 8.24233 16.2681 26.1936 -335.879 27.5671 361.923
lowerback -19.462 -5.28222 -1.19247
upperback -14.2267 -6.45676 0.598957
thorax -4.41624 -3.0434 0.31596
lowerneck -11.7569 -1.08958 -3.38596
upperneck 43.2192 -1.55485 2.81513
head 18.2081 -0.695031 1.70374
rclavicle 2.63265e-014 2.90226e-014
rhumerus -47.1793 -53.1512 -6.58511
rradius 9.62754
rwrist 59.8337
rhand 4.00631 9.80754
rfingers 7.12502
rthumb 29.4217 -17.8829
lclavicle 2.63265e-014 2.90226e-014
lhumerus 4.71778 -26.7859 66.7245
lradius 19.4
lwrist -44.3521
lhand 19.7408 20.9886
lfingers 7.12502
lthumb 44.2935 44.7611
rfemur -62.6495 -9.84942 34.4643
rtibia 46.0704
rfoot -26.4525 -34.8014
rtoes 38.1638
lfemur -2.19829 -8.82382 -21.8989
ltibia 28.4321
lfoot -2.3462 -3.42954
ltoes -38.2298
935
root 8.26067 16.3543 26.2878 -335.605 27.9969 362.04
lowerback -20.0797 -5.41281 -1.36495
upperback -13.7696 -6.58417 0.663908
thorax -3.56411 -3.10045 0.375837
lowerneck -12.7891 -1.16031 -3.43284
upperneck 43.1326 -1.63747 2.85396
head 18.4444 -0.727092 1.71631
rclavicle -5.25164e-014 -2.37051e-014
rhumerus -50.2479 -57.0025 -0.87985
rradius 9.4235
rwrist 63.7315
rhand 3.96339 9.44825
rfingers 7.12502
rthumb 29.3807 -18.2494
lclavicle -5.25164e-014 -2.37051e-014
lhumerus 7.82649 -28.2774 64.249
lradius 19.8264
lwrist -42.5784
lhand 19.422 20.7423
lfingers 7.12502
lthumb 43.9963 44.6265
rfemur -61.9552 -9.92986 34.306
rtibia 45.3832
rfoot -27.1251 -34.9026
rtoes 38.3821
lfemur -2.19895 -9.05621 -21.8559
ltibia 28.0572
lfoot -0.925732 -1.69114
ltoes -37.9975
936
root 8.28537 16.4127 26.3714 -335.385 28.4105 362.293
lowerback -19.571 -5.54626 -1.33679
upperback -14.442 -6.76507 0.595739
thorax -4.58883 -3.18192 0.347027
lowerneck -11.8974 -1.11999 -3.45207
upperneck 43.3787 -1.63446 2.9513
head 18.3528 -0.717492 1.77234
rclavicle -2.23633e-016 1.4561e-014
rhumerus -54.3524 -58.3238 5.68018
rradius 9.55188
rwrist 67.3245
rhand 4.12935 9.71786
rfingers 7.12502
rthumb 29.5392 -17.9519
lclavicle -2.23633e-016 1.4561e-014
lhumerus 8.48548 -29.9825 62.6501
lradius 20.5507
lwrist -40.8681
lhand 18.8805 20.6347
lfingers 7.12502
lthumb 43.4908 44.7049
rfemur -61.2956 -10.2165 34.0575
rtibia 44.7784
rfoot -27.5562 -34.865
rtoes 38.4666
lfemur -2.02699 -9.1238 -21.9641
ltibia 27.7721
lfoot 0.280297 0.142434
ltoes -35.2051
937
root 8.26533 16.4514 26.4965 -334.784 27.8752 362.66
lowerback -20.212 -5.73863 -2.49607
upperback -14.7469 -6.81068 0.690989
thorax -4.47965 -3.10566 1.03233
lowerneck -11.3187 -1.0221 -3.25797
upperneck 43.3694 -1.54025 2.91858
head 18.1793 -0.651616 1.73651
rclavicle 1.6201e-014 1.11816e-014
rhumerus -58.7034 -60.1468 12.4122
rradius 9.5594
rwrist 70.9206
rhand 4.12957 9.81201
rfingers 7.12502
rthumb 29.5394 -17.8577
lclavicle 1.6201e-014 1.11816e-014
lhumerus 9.65464 -30.671 60.9163
lradius 21.1495
lwrist -39.2758
lhand 17.9925 20.4495
lfingers 7.12502
lthumb 42.6606 44.8143
rfemur -60.5604 -7.58633 32.259
rtibia 44.0628
rfoot -29.6114 -36.3235
rtoes 39.783
lfemur -2.20068 -8.43497 -22.2259
ltibia 27.5248
lfoot 1.09233 2.21306
ltoes -29.9635
938
root 8.27348 16.4979 26.597 -334.376 27.752 362.929
lowerback -21.5056 -5.95563 -3.17915
upperback -14.2114 -6.91814 0.782283
thorax -3.14938 -3.12899 1.33204
lowerneck -11.729 -0.93737 -3.03265
upperneck 42.9601 -1.44274 2.86423
head 18.0306 -0.579603 1.67624
rclavicle 8.81983e-014 3.97569e-014
rhumerus -63.899 -63.6865 19.9081
rradius 9.54085
rwrist 74.7861
rhand 4.35653 9.1508
rfingers 7.12502
rthumb 29.756 -18.4804
lclavicle 8.81983e-014 3.97569e-014
lhumerus 12.625 -30.5947 58.476
lradius 21.3772
lwrist -37.7174
lhand 17.5053 20.4275
lfingers 7.12502
lthumb 42.2044 44.9487
rfemur -59.9499 -6.28167 31.1784
rtibia 43.4953
rfoot -31.2815 -36.9862
rtoes 40.7519
lfemur -2.2885 -7.94579 -22.4192
ltibia 27.4145
lfoot 1.92366 4.13913
ltoes -28.5805
939
root 8.31151 16.5506 26.675 -334.364 28.2639 362.983
lowerback -21.4806 -5.94479 -2.78634
upperback -14.5671 -6.95917 0.612005
thorax -3.62809 -3.17006 0.955083
lowerneck -10.523 -0.985206 -3.02778
upperneck 42.8234 -1.61497 3.02892
head 17.6355 -0.627722 1.71499
rclavicle 2.15184e-014 -1.53561e-014
rhumerus -70.0306 -65.1396 28.3467
rradius 9.85063
rwrist 78.5739
rhand 4.50369 8.93266
rfingers 7.12502
rthumb 29.8965 -18.6733
lclavicle 2.15184e-014 -1.53561e-014
lhumerus 13.9266 -31.0998 57.0183
lradius 21.7061
lwrist -37.0177
lhand 17.0039 20.3455
lfingers 7.12502
lthumb 41.7344 45.0239
rfemur -59.2307 -6.80352 31.2316
rtibia 42.9715
rfoot -31.5315 -36.8743
rtoes 40.9173
lfemur -2.03092 -7.85836 -22.3536
ltibia 27.3544
lfoot 2.7387 6.19814
ltoes -29.5538
940
root 8.34818 16.5955 26.7444 -334.35 28.6789 363.021
lowerback -20.6371 -5.85258 -2.28429
upperback -15.1955 -6.95261 0.518088
thorax -4.82741 -3.18604 0.701023
lowerneck -10.3558 -1.00187 -3.11993
upperneck 43.3125 -1.63365 3.07376
head 17.8883 -0.643056 1.76493
rclavicle -9.85723e-014 -4.48259e-014
rhumerus -76.4084 -65.9264 37.2583
rradius 10.1355
rwrist 81.9998
rhand 4.64341 9.03505
rfingers 7.12502
rthumb 30.0298 -18.5468
lclavicle -9.85723e-014 -4.48259e-014
lhumerus 14.9927 -31.6081 55.7674
lradius 22.183
lwrist -36.0044
lhand 16.4927 20.3323
lfingers 7.12502
lthumb 41.2548 45.1672
rfemur -58.6684 -7.45454 31.43
rtibia 42.5653
rfoot -31.4129 -36.6701
rtoes 40.6942
lfemur -1.74003 -7.71883 -22.3167
ltibia 27.2436
lfoot 4.5157 7.53742
ltoes -38.2925
941
root 8.37048 16.6313 26.8218 -334.154 28.7276 363.224
lowerback -20.6454 -5.89852 -2.36983
upperback -15.3305 -6.99652 0.47533
thorax -4.97468 -3.19947 0.702919
lowerneck -10.5658 -0.858952 -2.86982
upperneck 43.4799 -1.42913 2.97366
head 18.0314 -0.529153 1.71425
rclavicle -2.88238e-015 1.05356e-014
rhumerus -76.091 -66.3309 38.5286
rradius 10.2661
rwrist 81.6907
rhand 4.99633 8.52772
rfingers 7.12502
rthumb 30.3665 -18.9926
lclavicle -2.88238e-015 1.05356e-014
lhumerus 17.1011 -32.4691 53.4912
lradius 22.5709
lwrist -33.8271
lhand 15.7737 20.7987
lfingers 7.12502
lthumb 40.5794 45.8473
rfemur -58.187 -7.40799 31.1644
rtibia 42.1722
rfoot -31.9612 -36.5777
rtoes 40.8242
lfemur -1.5393 -7.26455 -22.4907
ltibia 27.1819
lfoot 5.39276 9.87689
ltoes -39.3923
942
root 8.38017 16.6532 26.9113 -333.533 28.2741 363.995
lowerback -21.3424 -6.03251 -3.38603
upperback -15.1522 -6.9732 0.346773
thorax -4.33834 -3.12308 1.04795
lowerneck -11.0036 -0.774068 -2.64168
upperneck 43.3339 -1.35211 2.97345
head 18.0535 -0.456911 1.6838
rclavicle 1.16538e-014 1.963e-014
rhumerus -75.7368 -66.8789 39.561
rradius 10.4428
rwrist 80.8981
rhand 5.1642 8.18205
rfingers 7.12502
rthumb 30.5266 -19.3086
lclavicle 1.16538e-014 1.963e-014
lhumerus 19.9519 -33.4902 50.5277
lradius 23.0281
lwrist -31.1529
lhand 14.8476 21.5643
lfingers 7.12502
lthumb 39.7082 46.8777
rfemur -57.9138 -6.62566 29.9621
rtibia 41.856
rfoot -32.977 -36.823
rtoes 40.8914
lfemur -1.42274 -6.69512 -23.3174
ltibia 27.1317
lfoot 2.96969 14.0235
ltoes -28.7389
943
root 8.42562 16.6901 26.9768 -334.031 28.9576 363.41
lowerback -21.3001 -5.85914 -2.34567
upperback -14.9716 -6.91534 0.320756
thorax -4.26634 -3.1783 0.457459
lowerneck -11.3643 -0.754899 -2.58623
upperneck 43.2094 -1.37372 3.08157
head 18.0767 -0.438319 1.71954
rclavicle -3.31722e-014 -3.8763e-015
rhumerus -76.8809 -67.4608 42.2704
rradius 10.5701
rwrist 80.4276
rhand 4.89763 8.00478
rfingers 7.12502
rthumb 30.2723 -19.5328
lclavicle -3.31722e-014 -3.8763e-015
lhumerus 21.8249 -31.6551 49.4671
lradius 23.4118
lwrist -32.587
lhand 15.2499 20.5343
lfingers 7.12502
lthumb 40.0869 45.7341
rfemur -57.1089 -7.84638 31.1154
rtibia 41.4134
rfoot -32.1435 -36.436
rtoes 39.4549
lfemur -0.835897 -6.48199 -22.6431
ltibia 27.2047
lfoot -0.00186391 17.6818
ltoes -10.2297
